<?xml version="1.0" standalone="no"?>
<!DOCTYPE svg PUBLIC "-//W3C//DTD SVG 20010904//EN"
 "http://www.w3.org/TR/2001/REC-SVG-20010904/DTD/svg10.dtd">
<svg version="1.0" xmlns="http://www.w3.org/2000/svg"
 width="700.000000pt" height="700.000000pt" viewBox="0 0 700.000000 700.000000"
 preserveAspectRatio="xMidYMid meet">
<metadata>
Created by potrace 1.11, written by Peter Selinger 2001-2013
</metadata>
<g transform="translate(0.000000,700.000000) scale(0.100000,-0.100000)"
fill="#000000" stroke="none">
<path d="M1700 5680 l0 -140 100 0 100 0 0 -175 0 -175 -559 0 c-338 0 -580
-4 -612 -10 -179 -34 -313 -175 -339 -355 -12 -90 -13 -3205 0 -3293 20 -141
111 -265 238 -325 l67 -32 2805 0 2805 0 67 32 c127 60 218 184 238 325 13 88
12 3203 0 3293 -26 180 -160 321 -339 355 -32 6 -273 10 -607 10 l-554 0 0 95
0 95 110 0 110 0 0 135 0 135 -330 0 -330 0 0 -135 0 -135 100 0 100 0 0 -95
0 -95 -1365 0 -1365 0 0 175 0 175 110 0 110 0 0 140 0 140 -330 0 -330 0 0
-140z m600 0 l0 -80 -110 0 -110 0 0 -210 0 -210 -65 0 -65 0 0 210 0 210
-100 0 -100 0 0 80 0 80 275 0 275 0 0 -80z m2978 -162 l-3 -83 -112 -3 -113
-3 0 -124 0 -125 -60 0 -60 0 0 125 0 125 -100 0 -100 0 0 85 0 85 275 0 276
0 -3 -82z m-3042 -1143 c436 -77 803 -392 944 -813 79 -237 79 -564 -2 -777
-35 -94 -88 -200 -136 -275 -64 -98 -238 -277 -324 -333 -311 -203 -647 -262
-993 -176 -363 91 -675 361 -818 709 -165 398 -110 851 144 1190 191 255 448
414 769 475 94 18 311 18 416 0z m2967 0 c547 -95 958 -541 1006 -1090 10
-110 1 -269 -19 -360 -102 -454 -445 -810 -890 -925 -231 -59 -510 -44 -728
40 -332 128 -597 397 -716 728 -87 242 -91 555 -9 791 147 428 502 736 942
815 103 19 309 19 414 1z"/>
<path d="M1285 3725 c14 -31 38 -80 53 -108 l27 -52 3 38 c2 20 5 37 8 37 3 0
126 -95 274 -211 268 -211 269 -211 267 -248 -2 -62 48 -111 114 -111 22 0 41
10 65 34 28 28 34 42 34 76 0 35 -6 48 -35 77 -31 31 -40 35 -73 30 -20 -3
-42 -6 -49 -8 -6 -2 -136 93 -287 211 l-276 215 35 9 c19 5 35 12 35 16 0 3
-44 15 -97 25 -54 10 -104 20 -110 22 -8 3 -3 -18 12 -52z"/>
<path d="M4806 4053 c-3 -10 -17 -60 -30 -112 l-25 -94 29 28 c22 21 31 25 34
14 3 -8 33 -148 67 -312 l62 -297 -22 -24 c-48 -51 -33 -139 29 -171 39 -20
68 -19 106 4 78 48 64 169 -23 196 -13 3 -23 10 -23 14 0 3 -29 144 -64 311
-35 168 -63 306 -61 308 2 2 17 -4 34 -12 16 -9 33 -16 36 -16 3 0 -26 41 -66
90 -39 50 -72 90 -74 90 -2 0 -6 -8 -9 -17z"/>
</g>
</svg>
